<svg xmlns="http://www.w3.org/2000/svg" viewBox="0 0 128 128">
  <defs>
    <linearGradient id="bootstrap-gradient" x1="76.079" y1="10.798" x2="523.48" y2="10.798" gradientTransform="translate(-8.896 32.39) scale(.19608)" gradientUnits="userSpaceOnUse">
      <stop offset="0" stop-color="#9013fe"/>
      <stop offset="1" stop-color="#6610f2"/>
    </linearGradient>
  </defs>
  <path fill="url(#bootstrap-gradient)" d="M14.985 27.712c-.237-6.815 5.072-13.099 12.249-13.34h73.542c7.208.075 13.003 6.355 12.741 13.46v72.31c.216 7.209-5.658 13.485-12.951 13.53H27.014c-7.205-.058-13.094-6.194-12.99-13.423 0-24.183.006-48.356-.038-72.537z"/>
  <path fill="#fff" d="M40.883 98.102V29.545H69.51c3.178-.015 6.475.288 9.42 1.456 4.322 1.603 7.727 5.476 8.458 10.058.619 3.294.303 6.912-1.209 9.937-1.872 3.992-5.81 6.717-10.094 7.608l-.157.046v.28c5.12.766 9.857 3.93 12.157 8.609 1.647 3.246 1.926 7.013 1.473 10.576-.537 4.276-2.885 8.262-6.353 10.859-2.759 2.144-6.076 3.398-9.477 3.951-2.257.367-4.549.41-6.833.394-8.67-.003-17.339-.002-26.011-.22zM52.1 57.569h12.624c2.469-.07 5.082-.281 7.228-1.531 2.252-1.287 3.506-3.985 3.195-6.56.143-2.342-.972-4.722-2.893-6.029-2.088-1.476-4.775-1.627-7.257-1.619H52.1zm0 29.7h14.037c2.583-.015 5.372-.182 7.56-1.632 2.087-1.318 3.327-3.854 3.183-6.317.179-2.621-1.203-5.28-3.508-6.509-2.501-1.393-5.46-1.32-8.211-1.345H52.1z"/>
</svg>
