<svg xmlns="http://www.w3.org/2000/svg" viewBox="0 0 128 128">
  <path fill="#5865F2" d="M107.7 30.482A101.82 101.82 0 0082.21 23.3a.384.384 0 00-.407.192c-1.1 1.957-2.32 4.513-3.176 6.52a93.95 93.95 0 00-28.25 0 65.1 65.1 0 00-3.225-6.52.4.4 0 00-.406-.192 101.545 101.545 0 00-25.49 7.178.36.36 0 00-.166.143C6.56 51.964 2.073 72.668 4.276 93.086a.426.426 0 00.162.29 102.44 102.44 0 0030.84 15.597.403.403 0 00.438-.143 73.31 73.31 0 006.318-10.282.396.396 0 00-.217-.551 67.505 67.505 0 01-9.639-4.592.4.4 0 01-.04-.664c.648-.486 1.295-.99 1.913-1.502a.387.387 0 01.404-.055c20.22 9.23 42.1 9.23 62.076 0a.386.386 0 01.408.051c.617.511 1.265 1.02 1.917 1.506a.4.4 0 01-.035.664 63.365 63.365 0 01-9.643 4.588.398.398 0 00-.212.555 82.325 82.325 0 006.314 10.278.395.395 0 00.438.147 102.148 102.148 0 0030.888-15.598.4.4 0 00.162-.286c2.635-27.266-4.414-50.949-18.686-71.939a.316.316 0 00-.162-.147zM44.025 80.172c-6.227 0-11.356-5.718-11.356-12.742 0-7.023 5.032-12.741 11.356-12.741 6.373 0 11.455 5.767 11.356 12.741 0 7.024-5.032 12.742-11.356 12.742zm41.994 0c-6.227 0-11.356-5.718-11.356-12.742 0-7.023 5.032-12.741 11.356-12.741 6.373 0 11.455 5.767 11.356 12.741 0 7.024-4.983 12.742-11.356 12.742z"/>
</svg>
