<svg xmlns="http://www.w3.org/2000/svg" viewBox="0 0 128 128">
  <path fill="#0ACF83" d="M45.5 129c11.598 0 21-9.402 21-21V87H45.5c-11.598 0-21 9.402-21 21s9.402 21 21 21z"/>
  <path fill="#A259FF" d="M24.5 66c0-11.598 9.402-21 21-21h21v42h-21c-11.598 0-21-9.402-21-21z"/>
  <path fill="#F24E1E" d="M24.5 24c0-11.598 9.402-21 21-21h21v42h-21c-11.598 0-21-9.402-21-21z"/>
  <path fill="#FF7262" d="M66.5 3h21c11.598 0 21 9.402 21 21s-9.402 21-21 21h-21z"/>
  <path fill="#1ABCFE" d="M108.5 66c0 11.598-9.402 21-21 21s-21-9.402-21-21 9.402-21 21-21 21 9.402 21 21z"/>
</svg>
