<svg xmlns="http://www.w3.org/2000/svg" viewBox="0 0 128 128">
  <path fill="#E0234E" d="M80.46 82.605h-8.777l-.734-.733V61.326c0-3.656-1.436-6.489-5.476-6.556-2.098-.033-4.46 0-6.952.033l-.4.433v26.607l-.733.733h-8.744l-.733-.733V44.893l.733-.734h17.623c7.32 0 14.193 5.91 14.193 13.263v24.45zm30.473.024h-8.777l-.733-.733V61.35c0-3.656-1.436-6.489-5.476-6.556-2.098-.033-4.46 0-6.953.033l-.4.433v26.607l-.733.733h-8.743l-.734-.733V44.893l.734-.734h17.622c7.32 0 14.193 5.91 14.193 13.263v24.45zM48.863 41.528H39.22l-.733.733v5.91l.733.733h9.642l.733-.733v-5.91zm0 12.587H39.22l-.733.733v27.05l.733.732h9.642l.733-.733v-27.05zM17.617 79.99c-.337.367-.7.7-1.075 1.004-.7.566-1.457 1.063-2.26 1.503-.8.433-1.634.8-2.498 1.1-.867.3-1.767.533-2.664.7-.9.166-1.8.266-2.697.3-.9.033-1.8 0-2.698-.1L2 84.327v-8.51l1.725-.267c.8-.133 1.6-.1 2.431-.1.834 0 1.668-.1 2.498-.233.834-.134 1.635-.367 2.398-.667.767-.3 1.501-.666 2.198-1.1a10.863 10.863 0 001.934-1.466 11.387 11.387 0 001.601-1.834c.467-.667.867-1.4 1.167-2.164.3-.766.534-1.6.667-2.431.133-.833.167-1.7.133-2.531a11.252 11.252 0 00-.4-2.498 11.13 11.13 0 00-.9-2.364 11.03 11.03 0 00-1.367-2.164 11.552 11.552 0 00-1.768-1.868 10.563 10.563 0 00-2.097-1.5 10.926 10.926 0 00-2.365-.967 12.23 12.23 0 00-2.497-.5c-.867-.1-1.735-.1-2.598-.033-.867.066-1.735.2-2.565.4-.833.2-1.633.467-2.431.766-.8.3-1.568.667-2.298 1.1l-.834-.8V40.95l1.1-.534c.734-.366 1.501-.666 2.298-.9a17.57 17.57 0 012.464-.633 19.01 19.01 0 012.531-.367c.867-.066 1.735-.066 2.598 0 .867.067 1.734.2 2.564.4.834.2 1.668.467 2.465.8.8.333 1.567.733 2.298 1.2.733.466 1.433 1 2.097 1.566.668.567 1.268 1.2 1.835 1.868a12.9 12.9 0 011.534 2.131c.466.766.867 1.567 1.2 2.398.334.833.6 1.7.8 2.564.2.867.334 1.768.4 2.665.067.9.067 1.8 0 2.697a16.047 16.047 0 01-.4 2.665c-.2.867-.466 1.734-.8 2.564-.333.833-.733 1.634-1.2 2.398a13.612 13.612 0 01-1.534 2.131 14.39 14.39 0 01-1.835 1.868c-.664.566-1.364 1.1-2.097 1.566z"/>
</svg>
