<svg xmlns="http://www.w3.org/2000/svg" viewBox="0 0 128 128">
  <path fill="#336791" d="M93.809 92.112c.785-6.533.55-7.492 5.416-6.433l1.235.108c3.742.17 8.637-.602 11.513-1.938 6.191-2.873 9.861-7.668 3.758-6.409-13.924 2.873-14.881-1.842-14.881-1.842 14.703-21.815 20.849-49.508 15.545-56.287-14.47-18.489-39.517-9.746-39.936-9.52l-.134.025c-2.751-.571-5.83-.912-9.289-.968-6.301-.104-11.082 1.652-14.535 4.401 0 0-44.683-18.409-42.604 23.151.442 8.842 12.672 66.898 27.26 49.362 5.332-6.412 10.484-11.834 10.484-11.834 2.558 1.699 5.622 2.567 8.834 2.255l.249-.212c-.078.796-.044 1.575.099 2.497-3.757 4.199-2.653 4.936-10.166 6.482-7.602 1.566-3.136 4.355-.221 5.084 3.535.884 11.712 2.136 17.238-5.598l-.22.882c1.474 1.18 1.375 8.477 1.583 13.69.209 5.214.558 10.078 1.621 12.948 1.063 2.868 2.317 10.256 12.191 8.14 8.252-1.764 14.561-4.309 15.136-27.985z"/>
  <path fill="#fff" d="M66.844 79.632c-3.71-.089-6.624-.348-8.94-.624l-.206.203c-.169 2.074-.076 5.167-.267 8.309-.236 3.913-.71 8.046-1.792 10.622-1.082 2.577-.907 3.626-3.986 4.399-3.076.771-5.014-.098-6.225-1.396-1.212-1.298-2.196-3.325-2.908-5.811-.707-2.487-1.117-5.312-1.389-8.167-.272-2.855-.328-5.56-.268-8.059.059-2.499.224-4.737.491-6.696.083-.607.201-1.19.292-1.732l-.088-.053-.193-.082c-2.089 2.344-3.882 4.442-5.66 6.479-5.314 6.094-9.876 11.042-15.024 6.312-5.423-4.984-9.665-26.063-11.098-40.009-1.434-13.945.148-22.984 1.723-26.61 1.575-3.625 3.33-4.596 5.188-6.023a38.085 38.085 0 014.77-2.778c-2.81 2.104-5.291 4.993-7.334 8.889-2.044 3.896-3.619 8.816-4.501 14.765-.881 5.948-1.062 12.809-.364 20.506.699 7.698 2.271 15.948 4.854 24.574l-.217.038a2.77 2.77 0 00-.036-.048c1.09 4.159 2.381 7.948 3.863 11.359 1.483 3.411 3.2 6.44 5.197 9.01 1.998 2.569 4.353 4.789 7.107 6.583 2.754 1.794 5.961 3.221 9.673 4.229 3.712 1.008 7.947 1.619 12.755 1.763 4.807.143 10.199-.216 16.267-1.143 6.069-.928 12.86-2.488 20.492-4.725a108.2 108.2 0 008.17-2.764c-.263 4.316-.76 7.64-1.521 10.159-.761 2.519-1.814 4.356-3.181 5.622-1.366 1.266-3.044 1.989-5.047 2.3-2.004.31-4.329.277-6.99-.118-2.661-.396-5.678-1.143-9.058-2.259-3.38-1.115-7.154-2.657-11.345-4.635a10.16 10.16 0 01-.078 2.012c3.955 1.934 7.544 3.501 10.787 4.737 3.242 1.236 6.179 2.162 8.831 2.81 2.652.649 5.049 1.039 7.21 1.18 2.16.14 4.133.038 5.933-.308 1.8-.347 3.461-.964 4.989-1.871s2.969-2.143 4.322-3.7c1.354-1.556 2.601-3.512 3.745-5.885 1.143-2.373 2.173-5.21 3.086-8.528.913-3.319 1.691-7.164 2.324-11.558-1.39 1.092-3.163 2.024-5.331 2.803-2.168.779-4.721 1.4-7.669 1.878-2.949.478-6.314.818-10.109 1.025-.951-.015-1.876-.043-2.789-.081zM22.961 29.241c-.002-.002-.004-.004-.004-.008-.001-.002-.002-.002-.004 0-.001.003 0 .006.004.008.001.001.003.001.004 0zm-.09-.012z"/>
  <path fill="#336791" d="M45.653 60.342c-.66-.096-1.289-.143-1.885-.143a8.048 8.048 0 00-1.783.211c-.001-.002-.001-.005-.002-.007-.099-.38-.189-.765-.268-1.157 2.244-.639 4.157-1.672 5.598-2.913-.001-.002 0-.004.001-.006.003-.001.004-.003.005-.006l-.017-.009c1.358-1.198 2.232-2.554 2.503-3.93-.001-.003 0-.006.002-.009a.1.1 0 01.003-.011v-.002l-.003-.001c.068-.398.08-.793.042-1.18.001-.002.003-.003.004-.004.001-.001.001-.003.001-.004.001-.001 0-.002-.001-.003.001-.003.001-.007-.001-.01-.001-.001-.002-.001-.003-.002.001-.003.001-.006.002-.009 0-.001-.001-.002-.003-.002-.002-.003-.004-.005-.007-.008l-.004.003c-.413-2.627-2.104-4.809-4.787-6.247l-.002-.002c-.001-.001-.003-.001-.004-.002l.002.003c-.001-.001-.002-.002-.003-.001-.004.001-.005.005-.004.008-.003.001-.004.003-.003.006-2.682-1.438-6.259-2.134-10.355-2.134-8.066 0-17.161 2.562-23.24 8.611-6.079 6.049-9.143 14.969-6.073 26.08 3.07 11.111 10.271 24.4 24.586 39.78l.002.001v.002c.001 0 .003.001.004.001.001.001.002.002.001.003-.001.001-.003 0-.003-.001l-.001-.001v.001c9.083-8.903 15.076-18.773 18.375-28.09 3.298-9.316 3.908-18.08 2.333-25.079-.788-3.499-2.041-6.543-3.7-9.122z"/>
  <path fill="#fff" d="M79.903 17.202c-2.421-.091-4.684.092-6.674.538l-.01.002c-2.508.57-4.582 1.456-6.078 2.583-.002.001-.003.003-.005.004a17.97 17.97 0 00-2.51 2.345c-.001.001-.002.003-.004.004l-.004.004c-.002.003-.003.006-.003.009-.001.003 0 .006.002.008.001.002.003.003.005.003.001 0 .003-.001.004-.002.002-.002.003-.004.003-.007l.001-.001a17.27 17.27 0 012.454-2.303c.002-.001.003-.003.005-.004l.003-.003c1.455-1.099 3.488-1.971 5.948-2.532l.01-.002c1.95-.437 4.174-.618 6.558-.527 5.95.225 13.049 2.088 19.926 6.318.003.002.006.003.01.005.002.001.004.001.006 0 .002-.001.003-.002.004-.004.001-.002.001-.004.001-.006 0-.002-.001-.004-.003-.005-.001-.002-.003-.003-.005-.004-6.92-4.245-14.092-6.127-20.124-6.324z"/>
</svg>
