<svg xmlns="http://www.w3.org/2000/svg" viewBox="0 0 128 128">
  <circle cx="64" cy="64" r="64" fill="#FF6C37"/>
  <path fill="#fff" d="M85.619 44.064L70.467 59.217a.802.802 0 01-1.135 0L54.181 44.064a9.59 9.59 0 0113.56-13.56l2.258 2.258 2.26-2.258a9.59 9.59 0 0113.56 13.56h-.2zm-29.903 24.82l-8.96 8.96a.803.803 0 01-1.135-1.135l8.96-8.959a13.534 13.534 0 00-1.135 1.134zm8.96 8.96a.803.803 0 01-1.136 0l-8.96-8.96a13.534 13.534 0 001.136-1.135l8.96 8.96a.803.803 0 010 1.135zM43.22 91.8a4.003 4.003 0 01-5.66-5.66l8.96-8.96a.803.803 0 011.135 1.135l-4.435 4.435 3.9 3.9 4.435-4.435a.803.803 0 011.135 1.135L43.22 91.8zm41.199-33.14l-8.96 8.96a.803.803 0 01-1.135-1.136l8.96-8.96a13.534 13.534 0 001.135 1.135zm-8.96 8.96a.803.803 0 01-1.135 0l-8.96-8.96a13.534 13.534 0 001.135-1.135l8.96 8.96a.803.803 0 010 1.135z"/>
</svg>
